<mxfile host="app.diagrams.net" modified="2022-01-25T16:11:58.812Z" agent="5.0 (Windows NT 10.0; Win64; x64) AppleWebKit/537.36 (KHTML, like Gecko) Chrome/97.0.4692.99 Safari/537.36" etag="uU5L2DVDrIfdVbRPL7T4" version="16.4.6" type="github">
  <diagram name="Page-1" id="42789a77-a242-8287-6e28-9cd8cfd52e62">
    <mxGraphModel dx="1512" dy="616" grid="1" gridSize="10" guides="1" tooltips="1" connect="1" arrows="1" fold="1" page="1" pageScale="1" pageWidth="1100" pageHeight="850" background="none" math="0" shadow="0">
      <root>
        <mxCell id="0" />
        <mxCell id="1" parent="0" />
        <mxCell id="4u6YXKjej-e5rv4cVSY1-3" value="arcade" style="ellipse;whiteSpace=wrap;html=1;" vertex="1" parent="1">
          <mxGeometry x="350" y="365" width="80" height="60" as="geometry" />
        </mxCell>
        <mxCell id="4u6YXKjej-e5rv4cVSY1-4" value="grocery store" style="ellipse;whiteSpace=wrap;html=1;" vertex="1" parent="1">
          <mxGeometry x="1000" y="90" width="80" height="60" as="geometry" />
        </mxCell>
        <mxCell id="4u6YXKjej-e5rv4cVSY1-5" value="workshop" style="ellipse;whiteSpace=wrap;html=1;" vertex="1" parent="1">
          <mxGeometry x="560" y="260" width="80" height="60" as="geometry" />
        </mxCell>
        <mxCell id="4u6YXKjej-e5rv4cVSY1-6" value="restaurant" style="ellipse;whiteSpace=wrap;html=1;" vertex="1" parent="1">
          <mxGeometry x="1000" y="170" width="80" height="60" as="geometry" />
        </mxCell>
        <mxCell id="4u6YXKjej-e5rv4cVSY1-7" value="bike parking" style="ellipse;whiteSpace=wrap;html=1;" vertex="1" parent="1">
          <mxGeometry x="960" y="480" width="80" height="60" as="geometry" />
        </mxCell>
        <mxCell id="4u6YXKjej-e5rv4cVSY1-8" value="Assisted living" style="ellipse;whiteSpace=wrap;html=1;" vertex="1" parent="1">
          <mxGeometry x="690" y="440" width="80" height="60" as="geometry" />
        </mxCell>
        <mxCell id="4u6YXKjej-e5rv4cVSY1-9" value="car parking" style="ellipse;whiteSpace=wrap;html=1;" vertex="1" parent="1">
          <mxGeometry x="820" y="480" width="80" height="60" as="geometry" />
        </mxCell>
        <mxCell id="4u6YXKjej-e5rv4cVSY1-10" value="fab labs" style="ellipse;whiteSpace=wrap;html=1;" vertex="1" parent="1">
          <mxGeometry x="470" y="220" width="80" height="60" as="geometry" />
        </mxCell>
        <mxCell id="4u6YXKjej-e5rv4cVSY1-11" value="startups" style="ellipse;whiteSpace=wrap;html=1;" vertex="1" parent="1">
          <mxGeometry x="860" y="210" width="80" height="60" as="geometry" />
        </mxCell>
        <mxCell id="4u6YXKjej-e5rv4cVSY1-12" value="library" style="ellipse;whiteSpace=wrap;html=1;" vertex="1" parent="1">
          <mxGeometry x="430" y="440" width="80" height="60" as="geometry" />
        </mxCell>
        <mxCell id="4u6YXKjej-e5rv4cVSY1-14" value="cinematheque" style="ellipse;whiteSpace=wrap;html=1;" vertex="1" parent="1">
          <mxGeometry x="350" y="260" width="80" height="60" as="geometry" />
        </mxCell>
        <mxCell id="4u6YXKjej-e5rv4cVSY1-16" value="drugstore" style="ellipse;whiteSpace=wrap;html=1;" vertex="1" parent="1">
          <mxGeometry x="580" y="340" width="80" height="60" as="geometry" />
        </mxCell>
        <mxCell id="4u6YXKjej-e5rv4cVSY1-17" value="co cooking&lt;br&gt;starter" style="ellipse;whiteSpace=wrap;html=1;" vertex="1" parent="1">
          <mxGeometry x="660" y="60" width="80" height="60" as="geometry" />
        </mxCell>
        <mxCell id="4u6YXKjej-e5rv4cVSY1-33" style="edgeStyle=orthogonalEdgeStyle;rounded=0;orthogonalLoop=1;jettySize=auto;html=1;entryX=-0.045;entryY=0.484;entryDx=0;entryDy=0;entryPerimeter=0;" edge="1" parent="1" source="4u6YXKjej-e5rv4cVSY1-18" target="4u6YXKjej-e5rv4cVSY1-29">
          <mxGeometry relative="1" as="geometry" />
        </mxCell>
        <mxCell id="4u6YXKjej-e5rv4cVSY1-18" value="Student housing" style="ellipse;whiteSpace=wrap;html=1;" vertex="1" parent="1">
          <mxGeometry x="520" y="70" width="80" height="60" as="geometry" />
        </mxCell>
        <mxCell id="4u6YXKjej-e5rv4cVSY1-34" style="edgeStyle=orthogonalEdgeStyle;rounded=0;orthogonalLoop=1;jettySize=auto;html=1;entryX=0.019;entryY=0.36;entryDx=0;entryDy=0;entryPerimeter=0;" edge="1" parent="1" source="4u6YXKjej-e5rv4cVSY1-19" target="4u6YXKjej-e5rv4cVSY1-17">
          <mxGeometry relative="1" as="geometry" />
        </mxCell>
        <mxCell id="4u6YXKjej-e5rv4cVSY1-19" value="starter housing" style="ellipse;whiteSpace=wrap;html=1;" vertex="1" parent="1">
          <mxGeometry x="590" width="80" height="60" as="geometry" />
        </mxCell>
        <mxCell id="4u6YXKjej-e5rv4cVSY1-20" value="gym" style="ellipse;whiteSpace=wrap;html=1;" vertex="1" parent="1">
          <mxGeometry x="920" y="280" width="80" height="60" as="geometry" />
        </mxCell>
        <mxCell id="4u6YXKjej-e5rv4cVSY1-21" value="communal&lt;br&gt;garden" style="ellipse;whiteSpace=wrap;html=1;" vertex="1" parent="1">
          <mxGeometry x="530" y="420" width="80" height="60" as="geometry" />
        </mxCell>
        <mxCell id="4u6YXKjej-e5rv4cVSY1-22" value="co working" style="ellipse;whiteSpace=wrap;html=1;" vertex="1" parent="1">
          <mxGeometry x="750" y="200" width="80" height="60" as="geometry" />
        </mxCell>
        <mxCell id="4u6YXKjej-e5rv4cVSY1-23" value="shops" style="ellipse;whiteSpace=wrap;html=1;" vertex="1" parent="1">
          <mxGeometry x="1000" y="20" width="80" height="60" as="geometry" />
        </mxCell>
        <mxCell id="4u6YXKjej-e5rv4cVSY1-24" value="Community&amp;nbsp;&lt;br&gt;Center" style="ellipse;whiteSpace=wrap;html=1;" vertex="1" parent="1">
          <mxGeometry x="440" y="300" width="120" height="90" as="geometry" />
        </mxCell>
        <mxCell id="4u6YXKjej-e5rv4cVSY1-27" value="Lobby" style="ellipse;whiteSpace=wrap;html=1;" vertex="1" parent="1">
          <mxGeometry x="780" y="270" width="120" height="90" as="geometry" />
        </mxCell>
        <mxCell id="4u6YXKjej-e5rv4cVSY1-29" value="co cooking&lt;br&gt;student" style="ellipse;whiteSpace=wrap;html=1;" vertex="1" parent="1">
          <mxGeometry x="600" y="120" width="80" height="60" as="geometry" />
        </mxCell>
        <mxCell id="4u6YXKjej-e5rv4cVSY1-57" value="" style="endArrow=none;html=1;rounded=0;entryX=0.5;entryY=1;entryDx=0;entryDy=0;exitX=0.5;exitY=0;exitDx=0;exitDy=0;" edge="1" parent="1" source="4u6YXKjej-e5rv4cVSY1-9" target="4u6YXKjej-e5rv4cVSY1-27">
          <mxGeometry width="50" height="50" relative="1" as="geometry">
            <mxPoint x="590" y="280" as="sourcePoint" />
            <mxPoint x="640" y="230" as="targetPoint" />
          </mxGeometry>
        </mxCell>
        <mxCell id="4u6YXKjej-e5rv4cVSY1-58" value="" style="endArrow=none;html=1;rounded=0;entryX=0.5;entryY=1;entryDx=0;entryDy=0;exitX=0;exitY=0;exitDx=0;exitDy=0;" edge="1" parent="1" source="4u6YXKjej-e5rv4cVSY1-7" target="4u6YXKjej-e5rv4cVSY1-27">
          <mxGeometry width="50" height="50" relative="1" as="geometry">
            <mxPoint x="590" y="280" as="sourcePoint" />
            <mxPoint x="640" y="230" as="targetPoint" />
          </mxGeometry>
        </mxCell>
        <mxCell id="4u6YXKjej-e5rv4cVSY1-59" value="" style="endArrow=none;html=1;rounded=0;entryX=0;entryY=0.5;entryDx=0;entryDy=0;exitX=1;exitY=0.5;exitDx=0;exitDy=0;" edge="1" parent="1" source="4u6YXKjej-e5rv4cVSY1-9" target="4u6YXKjej-e5rv4cVSY1-7">
          <mxGeometry width="50" height="50" relative="1" as="geometry">
            <mxPoint x="590" y="280" as="sourcePoint" />
            <mxPoint x="640" y="230" as="targetPoint" />
          </mxGeometry>
        </mxCell>
        <mxCell id="4u6YXKjej-e5rv4cVSY1-60" value="" style="endArrow=none;html=1;rounded=0;entryX=0.5;entryY=1;entryDx=0;entryDy=0;exitX=0.5;exitY=0;exitDx=0;exitDy=0;" edge="1" parent="1" source="4u6YXKjej-e5rv4cVSY1-61" target="4u6YXKjej-e5rv4cVSY1-29">
          <mxGeometry width="50" height="50" relative="1" as="geometry">
            <mxPoint x="700" y="310" as="sourcePoint" />
            <mxPoint x="640" y="230" as="targetPoint" />
          </mxGeometry>
        </mxCell>
        <mxCell id="4u6YXKjej-e5rv4cVSY1-61" value="laundry" style="ellipse;whiteSpace=wrap;html=1;" vertex="1" parent="1">
          <mxGeometry x="670" y="280" width="80" height="60" as="geometry" />
        </mxCell>
      </root>
    </mxGraphModel>
  </diagram>
</mxfile>
